<svg width="86" height="78" viewBox="0 0 86 78" fill="none" xmlns="http://www.w3.org/2000/svg">
<path d="M13.5952 42.556V54.8251V75.9551H33.4845H33.3999H53.3739V54.8251V42.556" stroke="#92c944" stroke-width="2.5" stroke-miterlimit="10" stroke-linecap="round"/>
<path d="M45.418 37.1884V45.4529C45.418 50.991 40.9323 55.5067 35.431 55.5067H33.4844H31.5378C26.0365 55.5067 21.5508 50.991 21.5508 45.4529V37.1884" stroke="#92c944" stroke-width="2.5" stroke-miterlimit="10" stroke-linecap="round"/>
<path d="M20.6196 17.2511V19.2959C20.6196 27.8161 26.5441 34.8027 33.4842 34.8027C40.4243 34.8027 46.3488 27.9013 46.3488 19.2959V17.2511" stroke="#92c944" stroke-width="2.5" stroke-miterlimit="10" stroke-linecap="round"/>
<path d="M2 75.9552C2 74.3363 4.36979 48.5202 4.36979 48.5202L21.6354 37.1884C24.8516 40.5112 28.9987 42.1301 33.4844 42.1301C37.9701 42.1301 42.1172 40.426 45.3333 37.1884L62.599 48.5202C62.599 48.5202 64.9687 74.2511 64.9687 75.9552" stroke="#92c944" stroke-width="2.5" stroke-miterlimit="10" stroke-linecap="round"/>
<path d="M53.3739 62.0673H43.5562" stroke="#92c944" stroke-width="2.5" stroke-miterlimit="10" stroke-linecap="round"/>
<path d="M53.3739 66.4978H43.5562" stroke="#92c944" stroke-width="2.5" stroke-miterlimit="10" stroke-linecap="round"/>
<path d="M13.5952 62.0673H23.4129" stroke="#92c944" stroke-width="2.5" stroke-miterlimit="10" stroke-linecap="round"/>
<path d="M13.5952 66.4978H23.4129" stroke="#92c944" stroke-width="2.5" stroke-miterlimit="10" stroke-linecap="round"/>
<path d="M20.7043 17.0807C20.7043 17.0807 20.5351 19.2108 22.1431 21.1704C23.4973 22.9596 25.9517 23.5561 27.983 22.6188C29.5064 21.9372 31.6223 21.2556 33.5689 21.2556C35.5155 21.2556 37.6314 21.9372 39.1549 22.6188C41.1861 23.4709 43.6405 22.9596 44.9947 21.1704C46.6028 19.1256 46.4335 17.0807 46.4335 17.0807V15.1211C46.4335 11.6278 45.164 8.13453 42.6249 5.74888C40.2551 3.44843 37.1236 2 33.5689 2C30.0142 2 26.8827 3.44843 24.5129 5.74888C22.0585 8.21973 20.7043 11.6278 20.7043 15.1211V16.4843C20.789 16.4843 25.6132 16.9955 34.0767 16.7399" stroke="#92c944" stroke-width="2.5" stroke-miterlimit="10" stroke-linecap="round"/>
<g style="mix-blend-mode:multiply">
</g>
</svg>
